P2
4 3
9
1 2 3 4
0 5 6 7
8 9 0 1