P2
3 4
9
0 0 0
9 9 9
1 2 3
8 5 7