P3
3 2
9
1 0 0
0 2 0
0 0 3
9 9 8
9 7 9
6 9 9
