P2
9 7
9
1 2 3 4 5 6 7 8 9
9 8 7 6 5 4 3 2 1
0 0 0 0 0 0 0 0 0
9 9 9 9 9 9 9 9 9
8 7 8 7 8 7 8 7 8
7 0 0 7 7 0 0 7 0
6 9 0 6 9 0 3 3 3