P3
3 2
255
53 0 0
0 181 0
0 0 17
53 181 0
53 181 17
0   0   0