P3
2 4
9
1 2 3
4 5 1
5 4 3
2 1 0
5 5 5
2 3 5
4 0 3
2 4 1