P2
4 3
9
0 0 0 
9 9 9 
0 0 0 
9 9 9 
