P3
2 3
9
0 0 0 
0 1 0 
0 0 0 
1 1 1 
6 4 6 
0 0 0 
