P3
3 3
9
0 0 0 
2 3 4 
0 0 0 
0 0 0 
6 6 6 
0 0 0 
1 1 1 
4 3 2 
0 0 0 
